<?xml version="1.0" standalone="no"?>
<!DOCTYPE svg PUBLIC "-//W3C//DTD SVG 20010904//EN"
 "http://www.w3.org/TR/2001/REC-SVG-20010904/DTD/svg10.dtd">
<svg version="1.0" xmlns="http://www.w3.org/2000/svg"
 width="800.000000pt" height="800.000000pt" viewBox="0 0 800.000000 800.000000"
 preserveAspectRatio="xMidYMid meet">
<metadata>
Created by potrace 1.11, written by Peter Selinger 2001-2013
</metadata>
<g transform="translate(0.000000,800.000000) scale(0.100000,-0.100000)"
fill="#000000" stroke="none">
<path d="M3779 7276 c-2 -2 -42 -6 -89 -10 -47 -3 -96 -8 -110 -10 -14 -3 -47
-7 -73 -10 -27 -3 -52 -8 -55 -10 -4 -2 -29 -6 -57 -10 -69 -8 -342 -78 -447
-114 -196 -68 -498 -205 -578 -262 -15 -11 -31 -20 -35 -20 -27 0 -416 -284
-501 -365 -11 -11 -50 -48 -85 -81 -365 -348 -641 -774 -813 -1254 -25 -69
-82 -258 -91 -305 -3 -11 -13 -60 -24 -110 -27 -122 -40 -209 -57 -370 -15
-143 -9 -547 11 -695 2 -14 6 -47 10 -75 3 -27 8 -57 10 -65 3 -8 7 -33 11
-55 32 -216 157 -589 274 -826 215 -432 523 -815 885 -1100 55 -44 105 -83
110 -87 6 -4 53 -37 105 -71 52 -35 107 -72 122 -82 15 -11 29 -19 32 -19 3 0
29 -14 58 -31 274 -162 716 -322 1008 -365 19 -3 41 -7 48 -9 7 -3 40 -7 75
-11 34 -3 65 -8 68 -10 16 -9 237 -19 414 -18 216 0 319 8 475 34 30 5 71 12
90 15 19 3 55 11 80 16 25 6 56 13 70 15 69 13 348 98 405 123 11 5 56 24 100
41 243 97 539 273 770 456 142 113 417 390 521 524 76 99 214 295 214 305 0 3
15 28 34 57 140 220 296 614 364 918 30 133 34 156 48 255 3 28 7 52 9 55 18
30 27 548 12 710 -16 178 -79 502 -121 618 -8 23 -15 43 -14 45 1 2 -29 101
-39 127 -4 8 -7 17 -8 20 -2 6 -5 13 -52 130 -233 577 -689 1125 -1218 1465
-159 102 -172 109 -335 190 -261 131 -571 234 -836 280 -49 8 -100 17 -113 20
-13 2 -56 7 -95 11 -39 3 -75 9 -80 12 -10 6 -501 14 -507 8z m201 -1957 c0
-249 -1 -269 -17 -269 -10 -1 -98 -1 -195 -1 l-178 -1 -1 -41 c-3 -262 0
-1099 5 -1104 3 -4 92 -6 196 -6 l190 1 0 -269 c0 -208 -3 -269 -12 -270 -7 0
-217 -1 -466 -2 l-452 -2 -1 25 c0 34 0 2137 0 2177 l1 32 465 0 465 0 0 -270z
m931 -609 c0 -49 0 -2150 0 -2176 l-1 -22 -464 0 -463 0 0 269 c0 267 0 269
21 270 11 0 99 0 194 0 l172 0 1 37 c0 55 0 1030 0 1077 l-1 41 -192 -1 -193
0 -1 267 -1 267 26 3 c14 2 223 3 463 3 l438 0 1 -35z"/>
</g>
</svg>
