<?xml version="1.0" encoding="UTF-8"?>
<svg width="69px" height="65px" viewBox="0 0 69 65" version="1.1" xmlns="http://www.w3.org/2000/svg" xmlns:xlink="http://www.w3.org/1999/xlink">
    <!-- Generator: Sketch 46 (44423) - http://www.bohemiancoding.com/sketch -->
    <title>Page 1</title>
    <desc>Created with Sketch.</desc>
    <defs>
        <polygon id="path-1" points="69 65 69 0 0 0 0 65"></polygon>
        <linearGradient x1="89.8918023%" y1="0%" x2="20.1600525%" y2="100%" id="linearGradient-3">
            <stop stop-color="#42EEBB" offset="0%"></stop>
            <stop stop-color="#47CFAF" offset="100%"></stop>
        </linearGradient>
    </defs>
    <g id="Welcome" stroke="none" stroke-width="1" fill="none" fill-rule="evenodd">
        <g id="Desktop-HD" transform="translate(-320.000000, -777.000000)">
            <g id="Page-1" transform="translate(320.000000, 777.000000)">
                <mask id="mask-2" fill="white">
                    <use xlink:href="#path-1"></use>
                </mask>
                <g id="Clip-2"></g>
                <path d="M37.521926,9.62014494 L4.28763643,30.8489493 L6.62925724,34.548226 L39.8551839,13.3026068 C40.69984,12.7729377 41.8121099,13.0167536 42.3473375,13.8659058 L44.3293522,17.0102911 L49.9576051,4.0796372 L35.9246061,3.70130208 L38.0738795,7.12313311 C38.61747,7.96387783 38.3665821,9.09047577 37.521926,9.62014494 L37.521926,9.62014494 Z M9.28866944,61.3679828 L25.5127565,61.3679828 L59.9847599,39.3488784 L59.9847599,30.731245 L45.3412669,30.731245 C45.2325488,30.731245 45.1238307,30.7985046 45.0402014,30.8909865 C44.9147574,31.0255056 44.8311281,31.2356918 44.8311281,31.4795078 L44.8311281,40.3409572 L44.8311281,40.3914019 L44.8311281,40.4334391 L44.8227652,40.4838838 L44.8227652,40.525921 L44.8227652,40.5763657 L44.8060393,40.618403 L44.8060393,40.6604402 L44.7976764,40.7108849 L44.7893134,40.7529221 L44.7893134,40.7529221 L44.7725876,40.7949594 L44.7642247,40.8369966 L44.7474988,40.8790338 L44.7307729,40.9210711 L44.72241,40.9631083 L44.7056841,41.0051455 L44.6889583,41.0471828 L44.6722324,41.08922 L44.6722324,41.08922 L44.6555065,41.1312572 L44.6387807,41.164887 L44.6387807,41.164887 L44.6220548,41.2069243 L44.596966,41.2405541 L44.596966,41.2489615 L44.5718772,41.2825913 L44.5467884,41.3246285 L44.5216996,41.3498509 L44.4966108,41.3918881 L44.4715221,41.4255179 L44.4464333,41.4591477 L44.4213445,41.5011849 L44.3878927,41.5264073 L44.3628039,41.5600371 L44.3293522,41.5936668 L44.3126264,41.6272966 L44.2791746,41.652519 L44.2457229,41.6861488 L44.2122712,41.7113711 L44.1788195,41.7450009 L44.1370048,41.7702232 L44.1035531,41.7954456 L44.0701013,41.8206679 L44.0366496,41.8458903 L43.994835,41.8711126 L43.9697462,41.8879275 L43.9279315,41.9131498 L43.8861169,41.9383722 L43.8526651,41.9551871 L43.8108505,41.972002 L43.8108505,41.9804094 L43.7690358,41.9972243 L43.7690358,41.9972243 L43.7272212,42.0140392 L43.6854065,42.0224467 L43.6854065,42.0308541 L43.6435918,42.0392616 L43.6435918,42.047669 L43.6101401,42.0560764 L43.5683255,42.0728913 L43.5265108,42.0897062 L43.4763332,42.0981137 L43.4345186,42.1065211 L43.3927039,42.1149286 L43.3425263,42.123336 L43.3007117,42.1317435 L43.258897,42.1401509 L43.2170823,42.1485584 L43.2170823,42.1485584 L43.1669047,42.1485584 L43.1167272,42.1569658 L43.0749125,42.1569658 L43.0247349,42.1569658 L27.5700376,42.1569658 C27.4613195,42.1569658 27.3526014,42.2074105 27.2689721,42.3082999 C27.1351652,42.4512265 27.0598988,42.6614126 27.0598988,42.8968212 L27.0598988,51.766678 L27.0598988,51.8087153 L27.0598988,51.8591599 L27.0598988,51.9011972 L27.0515358,51.9516419 L27.0515358,51.9936791 L27.0431729,52.0357163 L27.0431729,52.0441238 L27.03481,52.086161 L27.03481,52.086161 L27.026447,52.1281983 L27.0180841,52.1786429 L27.0013583,52.2122727 L26.9929953,52.2627174 L26.9762695,52.3047546 L26.9679065,52.3467919 L26.9511807,52.3888291 L26.9344548,52.4308664 L26.9177289,52.4729036 L26.9010031,52.5149408 L26.8842772,52.5485706 L26.8675514,52.5906079 L26.8424626,52.6242376 L26.8257367,52.6662749 L26.8006479,52.7083121 L26.7755591,52.7419419 L26.7755591,52.7419419 L26.7504703,52.7755717 L26.7253815,52.8176089 L26.7002927,52.8512387 L26.7002927,52.8512387 L26.6752039,52.8848685 L26.6752039,52.8848685 L26.6501151,52.9184983 L26.6250263,52.9521281 L26.6166634,52.9521281 L26.5915746,52.9857579 L26.5915746,52.9857579 L26.5581229,53.0193877 L26.5330341,53.04461 L26.4995824,53.0698323 L26.4661306,53.1034621 L26.4326789,53.1370919 L26.3992272,53.1623143 L26.3741384,53.1875366 L26.3323237,53.2211664 L26.298872,53.2379813 L26.2654203,53.2632036 L26.2236056,53.288426 L26.2236056,53.2968334 L26.1985168,53.3136483 L26.1567022,53.3388707 L26.1148875,53.3556856 L26.0814358,53.3809079 L26.0814358,53.3809079 L26.0396211,53.3977228 L25.9978065,53.4145377 L25.9559918,53.4313526 L25.9141772,53.4481675 L25.8723625,53.4649824 L25.8389108,53.4817973 L25.7970961,53.4986122 L25.7469185,53.5070196 L25.7051039,53.5238345 L25.6632892,53.5322419 L25.6214746,53.5406494 L25.571297,53.5490568 L25.5294823,53.5574643 L25.4876677,53.5658717 L25.4374901,53.5658717 L25.3956754,53.5742792 L25.3454978,53.5742792 L25.3036832,53.5826866 L25.2535056,53.5826866 L9.79880826,53.5826866 C9.69009015,53.5826866 9.58137204,53.6331313 9.4893798,53.7340207 C9.36393582,53.8685398 9.28866944,54.078726 9.28866944,54.3141345 L9.28866944,61.3679828 Z M7.48227625,65 L7.53245384,65 L7.54081677,65 L26.0312582,65 C26.424316,65 26.783922,64.8738883 27.0766246,64.6637021 L62.6776238,41.9215573 C63.2212144,41.6104817 63.5808204,41.013553 63.5808204,40.3409572 L63.5808204,30.731245 L67.1936068,30.731245 C68.1887956,30.731245 69,29.9241301 69,28.9152364 C69,27.9147502 68.1887956,27.1076352 67.1936068,27.1076352 L61.8246048,27.1076352 L61.7827902,27.1076352 L61.7493384,27.1076352 L61.7409755,27.1076352 L61.7409755,27.1076352 L61.7326126,27.1076352 L61.7242496,27.1076352 L61.6489833,27.1160427 L61.6406203,27.1160427 L61.6155315,27.1160427 L61.5904427,27.1160427 L61.5820798,27.1160427 L61.5737169,27.1244501 L61.556991,27.1244501 L61.5486281,27.1244501 L61.5402651,27.1244501 L61.5151764,27.1244501 L61.5068134,27.1328576 L61.4984505,27.1328576 L61.4900876,27.1328576 L61.4817246,27.1328576 L61.4733617,27.1328576 L61.4649988,27.1328576 L61.43991,27.1328576 L61.431547,27.141265 L61.4231841,27.141265 L61.4148212,27.141265 L61.4064582,27.141265 L61.3980953,27.141265 L61.3897324,27.1496725 L61.3897324,27.1496725 L61.3897324,27.1496725 L61.3813694,27.1496725 L61.3730065,27.1496725 L61.3646436,27.1580799 L61.3311919,27.1664874 L61.314466,27.1664874 L61.3061031,27.1664874 L61.3061031,27.1748948 L61.2893772,27.1748948 C61.1304815,27.1328576 60.9715858,27.1076352 60.7959642,27.1076352 L45.3412669,27.1076352 C44.1788195,27.1076352 43.1250901,27.6204895 42.3724263,28.4528268 C41.6615771,29.2347194 41.2183417,30.3024652 41.2183417,31.4795078 L41.2183417,38.5249486 L27.5700376,38.5249486 C26.4075901,38.5249486 25.3538608,39.0462103 24.6011969,39.8701402 C23.8987107,40.6520328 23.4471124,41.728186 23.4471124,42.8968212 L23.4471124,49.9506694 L9.79880826,49.9506694 C8.62799786,49.9506694 7.58263142,50.4635237 6.82996759,51.295861 C6.11911842,52.0777536 5.67588305,53.1539068 5.67588305,54.3141345 L5.67588305,61.3763902 L2.0714596,61.3763902 C1.07627076,61.3763902 0.273429337,62.1835052 0.273429337,63.1923988 C0.273429337,64.1844776 1.07627076,65 2.0714596,65 L7.48227625,65 Z M0.833745744,28.7639023 L34.0680353,7.53509802 L31.0657429,2.78489033 C30.5388783,1.93573815 30.7814033,0.817547668 31.6176964,0.279471044 C31.9773025,0.0524699679 32.3787232,-0.0316045046 32.771781,0.0104327317 L52.7173725,0.531694461 C53.7125613,0.556916803 54.4903139,1.38925408 54.4735881,2.38133286 C54.4652251,2.62514883 54.4150475,2.8521499 54.3230553,3.06233608 L46.2779152,21.5755349 C45.8764945,22.4919467 44.8227652,22.912319 43.9112056,22.5087616 C43.5683255,22.365835 43.2923487,22.122019 43.1083642,21.8193509 L40.2649675,17.3381815 L7.03904088,38.5753933 C6.1943848,39.1134699 5.08211492,38.8612465 4.54688731,38.0120943 L0.281792268,31.2693216 C-0.253435344,30.4285769 -0.00254740095,29.301979 0.833745744,28.7639023 L0.833745744,28.7639023 Z" id="Fill-1" fill="url(#linearGradient-3)" mask="url(#mask-2)"></path>
            </g>
        </g>
    </g>
</svg>