<?xml version="1.0" encoding="UTF-8"?>
<svg width="128px" height="116px" viewBox="0 0 128 116" version="1.1" xmlns="http://www.w3.org/2000/svg" xmlns:xlink="http://www.w3.org/1999/xlink">
    <!-- Generator: Sketch 46 (44423) - http://www.bohemiancoding.com/sketch -->
    <title>Page 1</title>
    <desc>Created with Sketch.</desc>
    <defs>
        <polygon id="path-1" points="128 116 128 0 0 0 1.08330229e-14 116 128 116"></polygon>
        <linearGradient x1="89.8918023%" y1="0%" x2="20.1600525%" y2="100%" id="linearGradient-3">
            <stop stop-color="#42EEBB" offset="0%"></stop>
            <stop stop-color="#47CFAF" offset="100%"></stop>
        </linearGradient>
    </defs>
    <g id="Welcome" stroke="none" stroke-width="1" fill="none" fill-rule="evenodd">
        <g id="Desktop-HD" transform="translate(-411.000000, -1009.000000)">
            <g id="Page-1" transform="translate(411.000000, 1009.000000)">
                <mask id="mask-2" fill="white">
                    <use xlink:href="#path-1"></use>
                </mask>
                <g id="Clip-2"></g>
                <path d="M67.3766679,61.2126976 L67.3766679,74.7939853 C67.3766679,76.5680504 65.8567756,77.9992289 63.9921655,77.9992289 L58.4923491,77.9992289 C56.3456971,77.9992289 54.4027421,78.834083 53.0082017,80.1609048 C51.5979924,81.5026346 50.7361978,83.3512402 50.7361978,85.3936512 C50.7361978,87.4211541 51.5979924,89.2697597 53.0082017,90.6114895 C54.4027421,91.9383113 56.3456971,92.7731654 58.4923491,92.7731654 L63.9921655,92.7731654 C65.8567756,92.7731654 67.3766679,94.2043439 67.3766679,95.9784089 L67.3766679,109.574605 L115.543151,109.574605 L115.543151,109.559697 C117.125719,109.559697 118.551598,108.963372 119.570082,107.994345 C120.588567,106.995502 121.246664,105.638864 121.246664,104.148053 L121.246664,61.2126976 L107.301261,61.2126976 L107.301261,63.2402005 C107.301261,67.0566765 105.671686,70.5153579 103.039295,73.0050122 L103.039295,73.0050122 C100.406904,75.4946665 96.7716979,77.0451099 92.7917738,77.0451099 C88.7961807,77.0451099 85.1766434,75.4946665 82.5442527,73.0050122 L82.5129147,72.9901041 C79.8961929,70.4855417 78.2666177,67.0417684 78.2666177,63.2402005 L78.2666177,61.2126976 L67.3766679,61.2126976 Z M60.6076631,61.2126976 L46.3488799,61.2126976 C44.4842698,61.2126976 42.9643775,59.766611 42.9643775,57.9925459 L42.9643775,52.7597995 C42.9643775,50.7024804 42.1025829,48.8687829 40.7080426,47.5419612 L40.6923736,47.5270531 C39.2978333,46.2002313 37.3548782,45.3802853 35.2082262,45.3802853 C33.0615742,45.3802853 31.1342882,46.2002313 29.7240788,47.5419612 C28.3138695,48.8687829 27.4520749,50.7173885 27.4520749,52.7597995 L27.4520749,57.9925459 C27.4520749,59.766611 25.9321826,61.2126976 24.0675725,61.2126976 L6.75333578,61.2126976 L6.75333578,104.148053 C6.75333578,105.638864 7.39576448,107.01041 8.42991798,107.994345 C9.4484025,108.963372 10.8742808,109.574605 12.4411801,109.574605 L12.4411801,109.589513 L60.6076631,109.574605 L60.6076631,99.1985606 L58.4923491,99.1985606 C54.481087,99.1985606 50.8458808,97.6481172 48.21349,95.1584629 C45.5967683,92.6539005 43.967193,89.1952191 43.967193,85.3936512 C43.967193,81.5771752 45.5967683,78.1184938 48.21349,75.6139314 C50.8458808,73.1242771 54.481087,71.5738337 58.4923491,71.5738337 L60.6076631,71.5738337 L60.6076631,61.2126976 Z M67.3766679,6.4403033 L67.3766679,16.8014394 L69.5076509,16.8014394 C73.503244,16.8014394 77.1384502,18.3369747 79.770841,20.8415371 C82.3875627,23.3311914 84.017138,26.7898728 84.017138,30.6063488 C84.017138,34.3184681 82.4659077,37.6877008 79.9588689,40.1773551 L79.770841,40.3711605 C77.1384502,42.8757229 73.503244,44.4261663 69.5076509,44.4261663 L67.3766679,44.4261663 L67.3766679,54.7723943 L81.6511201,54.7723943 C83.5157302,54.7723943 85.0199535,56.2184809 85.0199535,57.9925459 L85.0199535,63.2402005 C85.0199535,65.2826115 85.8974171,67.1312171 87.2919574,68.4580388 L87.2919574,68.4729469 C88.6864977,69.7997687 90.6294528,70.6197147 92.7917738,70.6197147 C94.9384258,70.6197147 96.8813808,69.7997687 98.2759212,68.4580388 L98.2759212,68.4580388 C99.6704615,67.116309 100.547925,65.2677034 100.547925,63.2402005 L100.547925,57.9925459 C100.547925,56.2184809 102.052148,54.7723943 103.932427,54.7723943 L121.246664,54.7723943 L121.246664,11.8519471 C121.246664,10.3611361 120.588567,9.00449814 119.570082,8.02056291 C118.551598,7.03662768 117.125719,6.4403033 115.543151,6.4403033 L67.3766679,6.4403033 Z M60.6076631,54.7723943 L60.6076631,41.2060147 C60.6076631,39.4319496 62.1275554,37.985863 63.9921655,37.985863 L69.5076509,37.985863 C71.6386339,37.985863 73.5815889,37.165917 74.9917983,35.8241871 L75.1328192,35.7049222 C76.4490146,34.3781005 77.2638022,32.5891274 77.2638022,30.6063488 C77.2638022,28.5639378 76.3863386,26.7302403 74.9917983,25.3885105 C73.5815889,24.0467806 71.6386339,23.2268346 69.5076509,23.2268346 L63.9921655,23.2268346 C62.1275554,23.2268346 60.6076631,21.780748 60.6076631,20.0066829 L60.6076631,6.4403033 L12.4411801,6.4403033 C10.8742808,6.4403033 9.4484025,7.03662768 8.42991798,8.02056291 C7.39576448,8.98959003 6.75333578,10.3611361 6.75333578,11.8519471 L6.75333578,54.7723943 L20.6987391,54.7723943 L20.6987391,52.7597995 C20.6987391,48.9433235 22.3126454,45.4846421 24.9450361,42.9949878 C27.5617579,40.4904254 31.1969641,38.939982 35.2082262,38.939982 C39.2038193,38.939982 42.8233566,40.4904254 45.4557473,42.9800797 L45.4714163,42.9949878 C48.1038071,45.5144583 49.7333823,48.9582316 49.7333823,52.7597995 L49.7333823,54.7723943 L60.6076631,54.7723943 Z M12.4411801,0 L63.9921655,0 L115.543151,0 C118.958991,0 122.09279,1.34172985 124.349125,3.48849762 C126.589791,5.63526539 128,8.60197918 128,11.8519471 L128,104.148053 C128,107.398021 126.589791,110.364735 124.349125,112.511502 C122.09279,114.65827 118.958991,115.985092 115.543151,115.985092 L115.543151,115.985092 L64.1958624,115.985092 L63.9921655,115.985092 L63.7884686,115.985092 L12.4411801,115.985092 L12.4411801,116 C9.00967071,116 5.90721018,114.65827 3.65087526,112.511502 C1.39454034,110.364735 0,107.398021 0,104.148053 L0,11.8519471 C0,8.60197918 1.39454034,5.63526539 3.65087526,3.48849762 C5.90721018,1.34172985 9.00967071,0 12.4411801,0 L12.4411801,0 Z" id="Fill-1" fill="url(#linearGradient-3)" mask="url(#mask-2)"></path>
            </g>
        </g>
    </g>
</svg>