<?xml version="1.0" encoding="UTF-8"?>
<svg width="100px" height="100px" viewBox="0 0 100 100" version="1.1" xmlns="http://www.w3.org/2000/svg" xmlns:xlink="http://www.w3.org/1999/xlink">
    <!-- Generator: Sketch 46 (44423) - http://www.bohemiancoding.com/sketch -->
    <title>Page 1</title>
    <desc>Created with Sketch.</desc>
    <defs>
        <linearGradient x1="89.8918023%" y1="0%" x2="20.1600525%" y2="100%" id="linearGradient-1">
            <stop stop-color="#42EEBB" offset="0%"></stop>
            <stop stop-color="#47CFAF" offset="100%"></stop>
        </linearGradient>
    </defs>
    <g id="Welcome" stroke="none" stroke-width="1" fill="none" fill-rule="evenodd">
        <g id="Desktop-HD" transform="translate(-482.000000, -810.000000)" fill="url(#linearGradient-1)">
            <path d="M527.301066,852.10268 L579.437381,869.612996 C580.012414,869.807179 580.519796,870.209326 580.834248,870.784359 C581.493218,871.993306 581.04597,873.504177 579.837023,874.161894 L564.851089,882.297545 L577.817517,895.279006 C578.790939,896.256186 578.783422,897.835961 577.81,898.804371 L570.79936,905.815012 C569.820927,906.782169 568.241153,906.779664 567.267731,905.804989 L554.310073,892.828539 L546.19572,907.755591 C545.910082,908.31559 545.410217,908.769102 544.766281,908.985836 C543.460868,909.423061 542.048968,908.717738 541.612996,907.412325 L524.146528,855.257218 C523.978654,854.761111 523.967379,854.209881 524.146528,853.674938 C524.579995,852.369526 525.995654,851.667961 527.301066,852.10268 L527.301066,852.10268 Z M528.251937,839.726319 C528.251937,841.099382 527.13695,842.21437 525.762634,842.21437 C524.388318,842.21437 523.272077,841.099382 523.272077,839.726319 L523.272077,812.490556 C523.272077,811.113735 524.388318,810 525.762634,810 C527.13695,810 528.251937,811.113735 528.251937,812.490556 L528.251937,839.726319 Z M537.686736,845.373919 C536.710809,846.349846 535.127276,846.349846 534.151349,845.373919 C533.174169,844.397991 533.174169,842.813206 534.151349,841.838531 L553.18381,822.809829 C554.157232,821.833901 555.74327,821.833901 556.715439,822.809829 C557.692619,823.784503 557.692619,825.369289 556.715439,826.345216 L537.686736,845.373919 Z M518.050428,842.518799 C519.027608,843.494726 519.027608,845.078259 518.050428,846.052933 C517.074501,847.030114 515.492221,847.030114 514.515041,846.052933 L494.808576,826.345216 C493.832648,825.369289 493.832648,823.784503 494.808576,822.809829 C495.785756,821.833901 497.368036,821.833901 498.346469,822.809829 L518.050428,842.518799 Z M512.902693,851.270825 C514.277009,851.270825 515.391997,852.388318 515.391997,853.762634 C515.391997,855.140708 514.277009,856.256948 512.902693,856.256948 L484.489304,856.256948 C483.114988,856.256948 482,855.140708 482,853.766392 C482,852.390823 483.114988,851.275836 484.489304,851.275836 L512.902693,851.270825 Z M515.023675,860.969963 C515.999603,859.992783 517.581883,859.992783 518.55781,860.969963 C519.536243,861.94589 519.536243,863.529423 518.55781,864.505351 L498.346469,884.719197 C497.368036,885.695125 495.785756,885.695125 494.808576,884.719197 C493.832648,883.74327 493.832648,882.159737 494.808576,881.18381 L515.023675,860.969963 Z M554.759826,866.582485 L530.460615,858.424284 L544.520733,900.402937 L551.526362,887.515436 C552.185332,886.310247 553.698709,885.860493 554.90515,886.519464 C555.125642,886.639732 555.314814,886.785056 555.483941,886.950425 L569.03793,900.518195 L572.524459,897.035425 L558.960447,883.457633 C557.988279,882.480453 557.994543,880.905689 558.971723,879.932268 C559.168411,879.731821 559.39642,879.575221 559.63821,879.457458 L572.427993,872.516974 L554.759826,866.582485 Z" id="Page-1"></path>
        </g>
    </g>
</svg>