<?xml version="1.0" encoding="UTF-8"?>
<svg width="1414px" height="883px" viewBox="0 0 1414 883" version="1.1" xmlns="http://www.w3.org/2000/svg" xmlns:xlink="http://www.w3.org/1999/xlink">
    <!-- Generator: Sketch 46 (44423) - http://www.bohemiancoding.com/sketch -->
    <title>LINES</title>
    <desc>Created with Sketch.</desc>
    <defs></defs>
    <g id="Welcome" stroke="none" stroke-width="1" fill="none" fill-rule="evenodd" opacity="0.103883605">
        <g id="Desktop-HD" transform="translate(-4.000000, 0.000000)" stroke="#39C99E" stroke-width="4">
            <g id="LINES" transform="translate(6.000000, -106.000000)">
                <path d="M446.344997,241.516849 L500.344997,288.516849" id="Line" stroke-linecap="square"></path>
                <polyline id="Path-2" points="554.1907 190.094974 531.163356 234.520755 549.866481 280.059818"></polyline>
                <polyline id="Path-3" points="602.493435 192.243411 596.497341 268.241458 657.032497 279.391849"></polyline>
                <path d="M642.637966,221.866458 C642.637966,221.866458 660.055935,201.757083 713.737575,252.54224" id="Path-4"></path>
                <path d="M721.872341,189.901615 C721.872341,189.901615 804.157497,253.13013 721.577419,288.218021" id="Path-5"></path>
                <polyline id="Path-6" points="824.563747 255.00513 792.995388 198.548099 854.288356 221.866458 837.786403 178.940677"></polyline>
                <path d="M758.962185,299.409427 C758.962185,299.409427 779.907497,354.579349 739.012966,342.54224 C698.118435,330.50513 700.344997,293.960208 680.194606,328.335208" id="Path-7"></path>
                <path d="M799.25906,291.311771 C799.25906,291.311771 828.483669,339.225833 871.835231,351.079349" id="Path-8"></path>
                <polyline id="Path-9" points="865.243435 309.477786 928.481716 321.305911 932.323513 383.665286 979.141872 393.425052"></polyline>
                <polyline id="Path-10" points="1000.79617 357.00513 1052.95047 290.41724 1068.05789 377.565677"></polyline>
                <polyline id="Path-11" points="989.167263 411.298099 1032.21023 394.458255 1009.05984 456.247318 1064.83133 424.876224"></polyline>
                <polyline id="Path-12" points="919.251247 267.75513 940.007106 297.526615 969.356716 268.311771 993.237575 310.790286"></polyline>
                <polyline id="Path-13" points="972.991481 218.946536 1017.87429 244.628177 1062.73562 225.468021"></polyline>
                <path d="M1081.97,240.809818 C1081.97,240.809818 1092.98172,271.227786 1118.94656,256.018802" id="Path-14"></path>
                <path d="M1094.39578,299.79224 C1094.39578,299.79224 1176.15945,363.714115 1094.07351,400.690677" id="Path-15"></path>
                <path d="M1175.20828,400.159427 C1175.20828,400.159427 1202.91336,442.944583 1246.52664,459.272708" id="Path-16"></path>
                <polyline id="Path-17" points="1194.87625 373.669193 1165.02468 318.294193 1225.17508 341.413333 1208.7825 298.186771"></polyline>
                <polyline id="Path-18" points="1223.19656 375.087161 1243.71218 406.096927 1273.34109 376.370365 1297.63211 417.415286"></polyline>
                <path d="M834.270778,399.460208 C834.270778,399.460208 870.751247,389.50513 925.47781,411.118411" id="Path-19"></path>
                <polyline id="Path-20" points="806.606716 429.151615 787.97781 371.466068 824.803981 373.721927 798.749294 352.864505"></polyline>
                <polyline id="Path-21" points="669.493435 422.120365 713.405544 446.374271 757.44656 426.962161"></polyline>
                <polyline id="Path-22" points="629.327419 403.096927 642.214138 350.04224 659.958278 404.962161 715.026638 368.776615"></polyline>
                <path d="M587.475856,311.655521 L641.710231,311.370365" id="Path-23"></path>
                <path d="M728.860622,397.024661 C728.860622,397.024661 736.921169,387.233646 765.3157,388.618411" id="Path-24"></path>
                <polyline id="Path-25" points="465.428981 209.721927 504.057888 184.991458 476.757106 155.475833 505.671169 135.983646"></polyline>
                <polyline id="Path-26" points="643.055935 102.106693 672.692653 158.50513 614.794216 136.188724 632.235622 179.708255"></polyline>
                <polyline id="Path-30" points="464.098903 81.9113802 453.235622 143.889896 391.194606 149.186771 382.647731 195.020755"></polyline>
                <polyline id="Path-31" points="356.872341 264.190677 321.436794 308.227786 311.561794 253.415286"></polyline>
                <path d="M368.844997,299.721927 L368.844997,356.486438" id="Path-32"></path>
                <path d="M358.669216,124.921146 L313.825466,176.858646" id="Path-33"></path>
                <path d="M378.011013,107.030521 C378.011013,107.030521 461.870388,75.2277864 377.809841,9.22192703" id="Path-34"></path>
                <path d="M546.206325,114.829349 C546.206325,114.829349 575.487575,112.200443 572.831325,144.528568" id="Path-36"></path>
                <polyline id="Path-40" points="207.4407 115.050052 227.936794 145.102786 257.928981 116.802005 282.624294 157.128177"></polyline>
                <path d="M279.3782,193.747318 C279.3782,193.747318 284.60281,226.405521 314.862575,207.981693 C345.122341,189.557865 348.089138,211.85474 348.089138,211.85474" id="Path-41"></path>
                <path d="M427.331325,208.456302 C427.331325,208.456302 400.8157,215.532474 414.073513,238.809818 C427.331325,262.087161 423.524685,265.09888 409.438747,269.975833" id="Path-42"></path>
                <polyline id="Path-46" points="178.839138 96.3293489 103.786403 104.040286 104.567653 166.503177"></polyline>
                <polyline id="Path-47" points="153.475856 157.425052 215.54031 168.843021 220.874294 231.333255 267.036403 240.47388"></polyline>
                <path d="M268.499294,264.825443 L282.680935,303.909427" id="Path-48"></path>
                <path d="M207.421169,277.366458 C207.421169,277.366458 235.387966,271.981693 234.841091,307.196536" id="Path-49"></path>
                <path d="M130.448513,288.464115 C130.448513,288.464115 136.10281,255.59888 188.542263,216.909427" id="Path-50"></path>
                <path d="M60.7590595,210.72388 L136.82156,204.94849" id="Path-51"></path>
                <polyline id="Path-52" points="34.8098408 118.030521 64.3489033 172.337161 5.98171576 151.684818 20.5578876 192.407474"></polyline>
                <polyline id="Path-53" points="54.9875751 244.653568 14.8782001 277.094974 64.4875751 302.069583"></polyline>
                <path d="M111.0657,241.518802 C111.0657,241.518802 64.3371845,255.391849 94.2961689,297.815677" id="Path-54"></path>
                <polyline id="Path-55" points="159.575466 283.106693 147.979763 345.344974 86.1653095 351.91724 78.2571064 397.964115"></polyline>
                <path d="M29.1008564,326.653568 C29.1008564,326.653568 -4.60422174,331.850833 1.04226264,372.460208" id="Path-56"></path>
                <polyline id="Path-57" points="54.1809345 368.190677 30.532497 394.82349 38.9719501 432.893802 20.2903095 451.862552 28.6907001 491.218021"></polyline>
                <polyline id="Path-58" points="209.046169 336.483646 181.247341 356.889896 208.448513 386.733646 170.161403 411.618411"></polyline>
                <path d="M123.6907,409.374271 C123.6907,409.374271 96.1867939,415.47388 110.997341,442.694583 C125.807888,469.915286 106.014919,472.225833 106.014919,472.225833" id="Path-59"></path>
                <path d="M142.47781,443.889896 L194.493435,488.356693" id="Path-60"></path>
                <polyline id="Path-61" points="249.432888 389.800052 226.966091 434.118411 245.046169 478.313724"></polyline>
                <polyline id="Path-62" points="277.261013 343.003177 327.630153 356.346927 276.618435 374.878177 312.313747 428.050052"></polyline>
                <path d="M351.419216,392.608646 C351.419216,392.608646 373.141872,401.331302 361.048122,414.952396 C348.954372,428.57349 323.194606,472.882572 346.645778,476.887943 C370.09695,480.893314 379.444606,471.555911 379.444606,471.555911" id="Path-63"></path>
                <polyline id="Path-64" points="239.218044 508.563724 274.831325 516.368411 275.97781 474.241458 321.91531 486.596927"></polyline>
                <polyline id="Path-65" points="81.0149189 466.745365 49.9094501 506.06763 58.5676533 552.774661"></polyline>
                <polyline id="Path-66" points="114.333278 537.120365 153.180935 494.083255 159.88406 543.540286 190.6907 522.895755"></polyline>
                <path d="M226.90945,541.940677 C226.90945,541.940677 170.561794,616.725833 272.669216,629.622318" id="Path-67"></path>
                <polyline id="Path-68" points="165.934841 615.579349 111.798122 585.012943 95.251247 628.995365 81.3215595 583.413333"></polyline>
                <polyline id="Path-69" points="16.7297626 553.829349 10.4602314 628.509036 70.1086689 639.147708"></polyline>
                <polyline id="Path-70" points="27.532497 663.430911 73.157497 692.747318 20.9172626 703.522708 66.3860126 747.84888 10.594997 747.026615"></polyline>
                <polyline id="Path-71" points="112.686794 748.708255 106.487575 678.694583 166.9407 671.565677"></polyline>
                <polyline id="Path-72" points="179.860622 639.649661 221.88406 636.485599 201.374294 676.466068 246.329372 662.210208 229.88406 715.356693"></polyline>
                <path d="M162.298122,707.569583 C162.298122,707.569583 242.776638,741.647708 162.630153,795.327396" id="Path-73"></path>
                <polyline id="Path-74" points="80.5442158 784.157474 64.7961689 823.393802 126.161403 802.805911 97.6653095 854.358646"></polyline>
                <polyline id="Path-75" points="22.3821064 804.858646 9.97780951 851.31763 51.9328876 852.831302 42.9660908 888.352786"></polyline>
                <path d="M3.94265326,936.686771 C3.94265326,936.686771 63.1907001,925.909427 68.6145283,976.366458" id="Path-76"></path>
                <polyline id="Path-77" points="72.3567158 875.032474 86.5871845 922.751224 131.13406 941.149661"></polyline>
                <path d="M158.591091,821.721927 L162.1282,890.784427" id="Path-78"></path>
                <polyline id="Path-79" points="181.438747 917.579349 148.91531 931.819583 169.94656 965.249271 126.925075 981.75513"></polyline>
                <polyline id="Path-80" points="201.651638 918.134036 250.575466 898.034427 222.3157 945.151615 288.22195 974.643802"></polyline>
                <polyline id="Path-81" points="227.296169 865.923099 211.020778 822.864505 271.751247 848.077396 241.749294 789.757083"></polyline>
                <path d="M289.934841,657.018802 C289.934841,657.018802 247.507106,719.139896 263.94656,752.803958" id="Path-82"></path>
                <polyline id="Path-83" points="313.19656 675.909427 331.057888 722.919193 309.555935 764.358646"></polyline>
                <path d="M347.948513,787.788333 L399.833278,747.432865" id="Path-84"></path>
                <polyline id="Path-85" points="385.975856 715.046146 352.526638 687.112552 381.171169 660.239505 355.516872 637.093021"></polyline>
                <path d="M415.817653,713.01099 C415.817653,713.01099 442.856716,709.173099 442.173122,741.315677" id="Path-86"></path>
                <polyline id="Path-87" points="392.497341 799.134036 437.594997 807.028568 391.432888 833.41724 428.001247 854.216068 389.667263 871.97974"></polyline>
                <path d="M373.292263,855.468021 C373.292263,855.468021 335.942653,875.887943 326.594997,837.120365 C317.247341,798.352786 315.583278,802.362552 291.919216,805.645755" id="Path-88"></path>
                <path d="M307.889919,869.19263 C307.889919,869.19263 388.380153,929.421146 308.719997,966.374271" id="Path-89"></path>
                <path d="M373.479763,956.35474 C373.479763,956.35474 380.112575,925.10474 431.456325,884.264896" id="Path-90"></path>
                <path d="M489.366481,897.384036 C489.366481,897.384036 459.598903,893.788333 459.548122,922.315677" id="Path-91"></path>
                <path d="M417.261013,952.891849 C417.261013,952.891849 426.745388,949.852786 437.389919,962.731693 C448.03445,975.610599 461.188747,961.196536 466.65945,952.91724 C472.130153,944.637943 481.423122,937.173099 497.950466,949.952396" id="Path-92"></path>
                <polyline id="Path-93" points="527.962185 907.677005 566.38406 933.589115 571.649685 983.923099"></polyline>
                <polyline id="Path-94" points="542.778591 848.774661 481.145778 854.825443 470.594997 799.337161"></polyline>
                <path d="M549.682888,796.704349 L601.649685,842.120365" id="Path-95"></path>
                <polyline id="Path-96" points="557.059841 865.362552 601.671169 889.108646 645.65945 871.16138"></polyline>
                <polyline id="Path-97" points="605.208278 911.88013 609.216091 959.034427 648.716091 945.997318 652.741481 982.007083"></polyline>
                <polyline id="Path-98" points="482.848903 740.680911 490.733669 696.413333 554.122341 698.141849 566.362575 636.807865"></polyline>
                <polyline id="Path-99" points="390.911403 581.737552 394.880153 642.561771 444.3782 629.202396 454.118435 694.112552"></polyline>
                <polyline id="Path-100" points="285.762966 598.645755 300.305935 538.762943 375.300075 551.550052"></polyline>
                <path d="M344.327419,591.239505 C344.327419,591.239505 315.186794,593.28638 318.764919,619.751224" id="Path-101"></path>
                <path d="M388.985622,511.559818 C388.985622,511.559818 435.579372,561.376224 435.536403,588.012943" id="Path-102"></path>
                <path d="M468.468044,487.743411 L458.874294,504.56763 C458.874294,504.56763 447.714138,531.944583 458.091091,535.360599 C468.468044,538.776615 474.03445,533.446536 488.077419,519.007083 C502.120388,504.56763 529.069606,537.344974 498.768825,560.190677" id="Path-103"></path>
                <polyline id="Path-104" points="462.905544 616.737552 500.245388 630.41138 526.3157 572.919193"></polyline>
                <path d="M536.766872,644.114505 C536.766872,644.114505 546.973903,608.969974 594.84695,569.811771" id="Path-105"></path>
                <path d="M603.235622,628.204349 C603.235622,628.204349 631.278591,623.655521 631.114528,658.438724" id="Path-106"></path>
                <polyline id="Path-107" points="560.843044 511.749271 623.042263 523.237552 627.325466 586.052005 674.555935 593.710208"></polyline>
                <polyline id="Path-108" points="609.255153 695.780521 580.122341 716.022708 608.817653 746.050052 567.678981 771.682865"></polyline>
                <polyline id="Path-109" points="653.800075 702.557865 630.485622 748.958255 649.219997 792.862552"></polyline>
                <path d="M521.208278,741.481693 C521.208278,741.481693 496.425075,747.553958 507.231716,771.124271 C518.038356,794.694583 522.374294,796.091068 502.966091,804.370365" id="Path-110"></path>
                <polyline id="Path-111" points="719.782497 781.530521 684.231716 728.987552 734.376247 709.384036 684.94656 697.26099"></polyline>
                <polyline id="Path-112" points="716.532497 656.794193 651.930935 640.282474 758.782497 601.204349"></polyline>
                <path d="M774.844997,654.100833 L774.844997,711.651133" id="Path-113"></path>
                <path d="M670.553981,795.637943 L689.292263,859.733646" id="Path-114"></path>
                <polyline id="Path-115" points="745.567653 856.596927 769.3782 896.245365 799.337185 867.657474 819.505153 896.97388"></polyline>
                <path d="M741.405544,948.928958 L805.085231,970.257083" id="Path-116"></path>
                <polyline id="Path-117" points="791.460231 918.264896 835.651638 943.145755 879.630153 924.294193"></polyline>
                <path d="M731.407497,872.34888 C731.407497,872.34888 727.798122,881.091068 718.198513,885.305911 C708.598903,889.520755 699.786403,903.805911 712.622341,917.841068 C725.458278,931.876224 718.794216,941.204349 709.399685,947.928958 C700.005153,954.653568 697.4407,952.276615 693.831325,961.585208" id="Path-118"></path>
                <path d="M758.237575,745.614505 C758.237575,745.614505 780.44656,756.09888 767.723903,770.624271 C755.001247,785.149661 708.223903,847.507083 788.327419,825.563724" id="Path-119"></path>
                <polyline id="Path-120" points="808.444606 722.399661 817.614528 662.860599 894.046169 668.026615"></polyline>
                <path d="M866.219997,703.524661 C866.219997,703.524661 883.962185,730.009036 836.964138,774.356693" id="Path-121"></path>
                <path d="M808.069606,776.132083 C808.069606,776.132083 844.458278,857.485599 907.964138,774.749271" id="Path-122"></path>
                <path d="M852.048122,847.237552 C852.048122,847.237552 871.233669,823.874271 892.147731,847.370365" id="Path-123"></path>
                <path d="M948.430935,855.540286 L871.956325,896.608646" id="Path-124"></path>
                <polyline id="Path-125" points="930.173122 911.825443 959.302028 966.97974 898.741481 946.44263 915.583278 988.190677"></polyline>
                <path d="M742.348444,72.3153963 C742.348444,72.3153963 658.802936,107.28369 743.550091,171.255079" id="Path-126"></path>
                <polyline id="Path-127" points="745.004808 132.230793 776.397426 147.091285 786.721611 105.665426 830.032578 127.496508"></polyline>
                <polyline id="Path-128" points="797.333297 63.2686069 858.429683 72.2000519 853.153107 148.914416"></polyline>
                <path d="M916.570153,123.645381 L871.721836,173.489662" id="Path-129"></path>
                <polyline id="Path-132" points="927.91178 197.961614 940.518752 144.250714 957.364201 197.112886 1012.44202 161.982765"></polyline>
                <path d="M1000.0227,92.1029885 C1000.0227,92.1029885 1002.3864,144.082001 1072.7155,138.173613" id="Path-135"></path>
                <path d="M908.423739,226.431026 C908.423739,226.431026 875.49377,221.837908 878.157021,251.290329" id="Path-136"></path>
                <path d="M1060.0741,166.420943 C1060.0741,166.420943 1074.91393,165.615254 1082.80039,173.668704 C1090.68685,181.722154 1105.09285,176.442134 1110.83597,160.590025 C1116.57909,144.737915 1125.8514,142.599739 1139.13322,150.062695 C1152.41505,157.525651 1153.43765,158.004244 1158.97763,156.432461" id="Path-137"></path>
                <path d="M1204.55416,161.996538 L1252.99365,135.930422" id="Path-138"></path>
                <polyline id="Path-139" points="1128.59384 108.27703 1182.1653 72.9472082 1199.83709 123.807208 1212.11181 70.6231044"></polyline>
                <polyline id="Path-141" points="1185.10916 197.396943 1244.97463 205.746501 1241.07703 281.927182"></polyline>
                <path d="M1272.23207,225.016849 L1327.86562,225.016849" id="Path-142"></path>
                <path d="M1129.44257,224.814482 C1129.44257,224.814482 1180.07532,269.106737 1200.99226,254.342652" id="Path-143"></path>
                <path d="M1298.51166,291.289017 C1298.51166,291.289017 1267.06223,287.505031 1268.44464,316.206853" id="Path-144"></path>
                <path d="M1368.28814,6.96159639 C1368.28814,6.96159639 1449.21516,67.178266 1369.44675,106.877403" id="Path-148"></path>
                <polyline id="Path-149" points="1289.0362 106.044168 1283.70281 181.451869 1342.65414 192.292523"></polyline>
                <path d="M1328.01228,135.047263 C1328.01228,135.047263 1341.59538,113.216181 1398.56174,163.891974" id="Path-150"></path>
                <polyline id="Path-151" points="1397.09153 225.19839 1374.96262 284.60937 1330.57568 254.852233 1350.58019 301.876601"></polyline>
                <polyline id="Path-152" points="1303.37334 340.365482 1349.36821 365.80495 1393.94797 347.511671"></polyline>
                <polyline id="Path-153" points="1344.88528 404.732829 1373.62497 460.805707 1314.58929 439.516916 1330.34671 481.393824"></polyline>
                <path d="M1386.17341,413.044513 C1386.17341,413.044513 1412.12332,408.730287 1403.47335,377.699197" id="Path-154"></path>
                <polyline id="Path-155" points="1400.33151 462.649496 1389.45814 525.19027 1326.1375 530.527101 1318.51272 577.251917"></polyline>
                <polyline id="Path-156" points="1195.90333 465.583032 1120.24601 459.889838 1110.78088 521.542288"></polyline>
                <path d="M1079.845,451.591927 L1079.845,506.749093" id="Path-157"></path>
                <polyline id="Path-158" points="1201.41232 504.550506 1243.25996 487.236794 1219.9931 548.834153 1278.14906 518.211072"></polyline>
                <polyline id="Path-159" points="1290.26367 539.797693 1282.75423 614.480618 1343.12929 624.050761"></polyline>
                <path d="M1169.76491,507.16211 C1169.76491,507.16211 1189.39929,520.774473 1140.14894,577.79593" id="Path-160"></path>
                <polyline id="Path-161" points="990.564455 495.810154 1039.34481 508.138234 988.157716 525.999402 1024.02639 582.204841"></polyline>
                <polyline id="Path-162" points="971.224468 542.407575 947.794058 585.074679 965.491678 630.670153"></polyline>
                <polyline id="Path-163" points="880.615406 561.522038 918.792685 539.572169 892.530312 510.114583 922.073976 489.440388"></polyline>
                <path d="M928.333562,447.193345 C928.333562,447.193345 955.613376,440.818414 955.05387,476.201604" id="Path-164"></path>
                <polyline id="Path-165" points="881.094 430.792058 855.060593 488.192258 794.076109 480.202506 775.674371 520.557556"></polyline>
                <path d="M771.315385,455.136616 L727.014523,503.686284" id="Path-166"></path>
                <path d="M543.1452,404.920479 C543.1452,404.920479 524.838148,452.321868 542.852535,496.994587" id="Path-167"></path>
                <path d="M579.989993,445.027625 C579.989993,445.027625 573.821649,418.274607 608.237323,420.381795" id="Path-168"></path>
                <polyline id="Path-169" points="616.488752 462.623673 636.598276 493.778715 665.663346 465.367837 689.486271 502.701553"></polyline>
                <path d="M684.102958,533.374559 C684.102958,533.374559 694.545932,537.501134 698.118165,548.550096 C701.690399,559.599058 713.941009,569.126162 727.761679,558.838129 C741.58235,548.550096 752.502195,550.516116 757.983637,564.445245 C763.465079,578.374374 765.899363,579.553641 771.690685,581.268313" id="Path-170"></path>
                <polyline id="Path-171" points="845.604073 532.314079 812.899628 570.133273 820.560563 616.56026"></polyline>
                <path d="M853.762538,595.257697 L905.54185,638.608259" id="Path-172"></path>
                <polyline id="Path-173" points="931.322187 639.389846 904.288556 696.834807 951.056411 678.150734 927.643217 738.568826 984.18436 707.059142"></polyline>
                <polyline id="Path-174" points="982.653894 747.421079 1037.18598 712.463114 1054.85261 764.521318 1067.35801 711.75211"></polyline>
                <path d="M1017.80467,623.19859 L1025.88223,639.148828 C1025.88223,639.148828 1031.13642,654.56194 1022.20498,657.724443 C1013.27353,660.886946 997.998144,663.417637 985.083013,643.308113" id="Path-175"></path>
                <polyline id="Path-176" points="1124.56884 658.345926 1140.81002 689.649022 1173.00488 664.142413 1195.97908 703.552328"></polyline>
                <path d="M1058.85523,542.738115 C1058.85523,542.738115 1062.60651,552.550998 1059.51459,558.051377 C1056.42267,563.551756 1046.08471,583.413375 1069.05375,590.423561 C1092.02278,597.433747 1092.44456,603.68989 1088.59343,616.288254 C1084.74231,628.886618 1082.90713,626.450613 1084.43071,637.816342" id="Path-177"></path>
                <path d="M1076.60967,666.464795 C1076.60967,666.464795 1138.47042,716.011246 1098.11882,763.891228" id="Path-178"></path>
                <path d="M1063.64977,791.093572 L1097.56964,834.376994" id="Path-179"></path>
                <polyline id="Path-180" points="1142.23203 748.798326 1135.5696 825.471372 1195.30423 835.947055"></polyline>
                <polyline id="Path-181" points="986.723658 892.667239 1006.75915 834.197951 1080.66221 854.39011"></polyline>
                <path d="M1124.72206,879.583395 L1180.00818,878.92576" id="Path-182"></path>
                <polyline id="Path-183" points="992.008842 939.615858 1039.83546 925.368241 1058.44378 880.793651"></polyline>
                <path d="M924.578843,808.565668 C924.578843,808.565668 936.943076,807.923527 944.244205,815.236707 C951.545334,822.549887 964.629178,822.978555 973.610548,801.763791 C982.591918,780.549027 1003.0492,794.867228 1003.0492,794.867228 C1003.0492,794.867228 1010.24703,802.481681 1020.08057,799.701364" id="Path-184"></path>
                <path d="M1057.65703,943.227688 C1057.65703,943.227688 1074.40607,964.516479 1086.31581,966.900837 C1098.22555,969.285196 1112.86569,964.37359 1101.96994,948.295956 C1091.0742,932.218322 1085.05047,917.817486 1101.77368,911.513139 C1118.4969,905.208792 1137.23434,934.167126 1137.23434,934.167126" id="Path-185"></path>
                <polyline id="Path-186" points="1179.92383 966.434295 1192.80108 914.656705 1210.03561 968.371048 1264.44029 933.085987"></polyline>
                <path d="M1217.00103,885.832652 L1225.34715,873.697387 C1225.34715,873.697387 1231.82537,866.799103 1240.27994,874.737209 C1248.73452,882.675314 1259.85062,896.588949 1273.96568,899.59479 C1288.08073,902.600631 1304.9675,905.181247 1302.20784,882.590958 C1299.44818,860.000669 1298.36016,854.601862 1298.36016,854.601862" id="Path-187"></path>
                <path d="M1314.20883,914.663591 L1276.65647,970.741634" id="Path-188"></path>
                <polyline id="Path-189" points="1328.28429 939.653733 1357.72982 976.243735 1384.03523 943.800967 1407.90464 969.550316"></polyline>
                <path d="M1358.74898,910.981178 C1358.74898,910.981178 1354.81867,902.252876 1360.07975,891.260726 C1365.34083,880.268576 1361.91665,867.912951 1342.48887,863.516091 C1323.06108,859.119231 1325.52291,846.839355 1328.51325,836.002145 C1331.5036,825.164935 1330.62044,820.205125 1329.56685,816.407367" id="Path-190"></path>
                <polyline id="Path-191" points="1401.00636 778.975523 1384.69459 824.720772 1409.51602 865.824701"></polyline>
                <path d="M1160.05532,775.938694 C1160.05532,775.938694 1180.12181,759.454772 1230.35688,807.658407" id="Path-192"></path>
                <path d="M1255.34186,823.703331 C1255.34186,823.703331 1338.75997,792.522466 1255.8721,724.266118" id="Path-193"></path>
                <path d="M1214.92827,736.280874 L1263.22832,688.049694" id="Path-194"></path>
                <path d="M1291.75282,669.040247 L1347.51065,669.499903" id="Path-195"></path>
                <polyline id="Path-196" points="1324.60704 758.642196 1337.74425 709.238635 1356.22174 760.542797 1409.98084 725.655416"></polyline>
                <polyline id="Path-197" points="1213.92288 661.925046 1223.16765 614.826651 1267.36867 590.80919"></polyline>
                <path d="M1211.6401,572.584773 C1211.6401,572.584773 1156.58638,656.199142 1112.57302,574.876167" id="Path-198"></path>
                <path d="M1352.85609,579.768836 C1352.85609,579.768836 1450.40303,610.632935 1384.16952,673.895041" id="Path-199"></path>
                <polyline id="Path-200" points="400.505153 370.03638 409.667263 309.09888 486.776638 315.024661"></polyline>
                <polyline id="Path-201" points="499.718044 329.919193 541.663356 314.112552 518.10281 374.905521 573.350856 343.805911"></polyline>
                <path d="M458.149685,355.307865 C458.149685,355.307865 476.47781,376.048099 428.618435,425.462161" id="Path-202"></path>
                <path d="M394.083278,429.466068 C394.083278,429.466068 431.743435,510.989505 493.587185,430.03638" id="Path-203"></path>
            </g>
        </g>
    </g>
</svg>