<?xml version="1.0" encoding="UTF-8"?>
<svg width="206px" height="47px" viewBox="0 0 206 47" version="1.1" xmlns="http://www.w3.org/2000/svg" xmlns:xlink="http://www.w3.org/1999/xlink">
    <!-- Generator: Sketch 46 (44423) - http://www.bohemiancoding.com/sketch -->
    <title>Logo</title>
    <desc>Created with Sketch.</desc>
    <defs>
        <polygon id="path-1" points="0 47 206 47 206 0 0 0"></polygon>
    </defs>
    <g id="Welcome" stroke="none" stroke-width="1" fill="none" fill-rule="evenodd">
        <g id="Desktop-HD" transform="translate(-217.000000, -58.000000)">
            <g id="Logo" transform="translate(217.000000, 58.000000)">
                <path d="M68.4356407,29.1305084 C69.8273518,29.1305084 71.1022586,28.6387089 72.2603611,27.6538259 L73.9602368,33.1226872 C72.1845625,34.3746571 70.2001316,35 68.0106717,35 C64.7910971,35 62.1505738,33.9753108 60.0903443,31.9259324 C58.0301148,29.876554 57,27.2403549 57,24.0211872 C57,20.8264169 58.0437833,18.1902177 60.1288648,16.1151579 C62.2151889,14.038814 64.8296177,13 67.9721512,13 C70.2386521,13 72.2479351,13.6407518 74,14.917119 L72.2603611,20.5464892 C71.0500694,19.5089593 69.6981215,18.9901944 68.2032746,18.9901944 C66.7357649,18.9901944 65.5764199,19.4627327 64.7277246,20.4065254 C63.8765441,21.3516022 63.4515752,22.5432207 63.4515752,23.9800969 C63.4515752,25.523551 63.9088517,26.7691006 64.8234047,27.7128932 C65.7379578,28.6592541 66.9420364,29.1305084 68.4356407,29.1305084 Z" id="Fill-1" fill="#FEFEFE"></path>
                <path d="M91.460733,19.288466 C90.8798305,18.6887696 90.0969833,18.3895634 89.1159312,18.3895634 C88.1336325,18.3895634 87.3582648,18.7028952 86.789828,19.3282746 C86.2213912,19.9549381 85.898529,20.6791968 85.8212416,21.5049031 L92.4106208,21.5049031 C92.3582648,20.6252627 92.0428821,19.8868784 91.460733,19.288466 M98.9613563,25.7361662 L85.6267764,25.7361662 C85.7053104,26.6954238 86.1503366,27.5134252 86.9655946,28.1927387 C87.7783595,28.8707682 88.766891,29.211067 89.9286961,29.211067 C90.9895288,29.211067 91.8870606,28.9645109 92.6237846,28.4713986 C93.359262,27.9795704 93.8828222,27.4800374 94.1932186,26.9740836 L98.4564946,30.3680831 C97.9915233,31.3543077 97.0092246,32.3713519 95.5108452,33.4230679 C94.0124657,34.474784 92.1126901,35 89.8140115,35 C86.5317876,35 83.9077537,33.9688303 81.9456495,31.9052066 C79.9810521,29.8428671 79,27.2283446 79,24.0603549 C79,20.9193322 79.9299427,18.2906841 81.789828,16.1731263 C83.6497133,14.0581368 86.0543505,13 88.9987534,13 C92.2036899,13 94.6706557,14.0054868 96.4033907,16.0138921 C98.1336325,18.0248657 99,20.8255895 99,24.4186318 C99,24.9785197 98.9862877,25.4164137 98.9613563,25.7361662" id="Fill-3" fill="#FEFEFE"></path>
                <path d="M115.321056,34 L115.321056,21.7833702 C115.321056,20.8456572 115.067637,20.1238568 114.560799,19.6167135 C114.053961,19.1095702 113.38761,18.8559986 112.56046,18.8559986 C111.653555,18.8559986 110.946039,19.1283998 110.440487,19.6757128 C109.933649,20.2205153 109.68023,20.9247415 109.68023,21.7833702 L109.68023,34 L103,34 L103,13.5083986 L109.520718,13.5083986 L109.520718,15.6148006 C109.973527,14.9130851 110.666892,14.3030068 111.600812,13.7820551 C112.533446,13.2611035 113.601151,13 114.801354,13 C116.053013,13 117.1413,13.209636 118.06107,13.6263973 C118.98084,14.0419033 119.687068,14.5565784 120.179756,15.1666567 C120.673731,15.7779903 121.060934,16.5474924 121.341368,17.4701417 C121.620515,18.392791 121.800609,19.2388666 121.881652,20.0071134 C121.960122,20.7753602 122,21.6528185 122,22.6407436 L122,34 L115.321056,34 Z" id="Fill-5" fill="#FEFEFE"></path>
                <path d="M134.411169,10 L134.411169,14.3087949 L137.846122,14.3087949 L137.846122,19.5490186 L134.411169,19.5490186 L134.411169,27.0416521 C134.411169,28.5174549 135.24757,29.2553563 136.919131,29.2553563 C137.355946,29.2553563 137.715822,29.2428707 138,29.2166509 L138,34.7677671 C137.434126,34.9238376 136.610134,35 135.530507,35 C133.034953,35 131.151189,34.3544923 129.877973,33.0597313 C128.603516,31.7662188 127.968149,29.657394 127.968149,26.7320082 L127.968149,19.5490186 L126,19.5490186 L126,14.3087949 L127.968149,14.3087949 L127.968149,10 L134.411169,10 Z" id="Fill-7" fill="#FEFEFE"></path>
                <path d="M153,13 L153,19.6355431 C152.659142,19.5840756 152.332339,19.5577141 152.016079,19.5577141 C149.394633,19.5577141 148.082739,21.3528005 148.082739,24.9442286 L148.082739,34 L142,34 L142,13.5071433 L147.937493,13.5071433 L147.937493,16.2399426 C148.931956,14.0795624 150.619849,13 153,13" id="Fill-9" fill="#FEFEFE"></path>
                <mask id="mask-2" fill="white">
                    <use xlink:href="#path-1"></use>
                </mask>
                <g id="Clip-12"></g>
                <path d="M158.470507,35 L165.613414,35 L165.613414,14.3700266 L158.470507,14.3700266 L158.470507,35 Z M164.844368,12.1103848 C164.073947,12.7789253 163.119175,13.1125637 161.978676,13.1125637 C160.838177,13.1125637 159.888908,12.7789253 159.13362,12.1103848 C158.376956,11.443108 158,10.597638 158,9.57650238 C158,8.5288273 158.376956,7.6694557 159.13362,7.00217893 C159.888908,6.33490217 160.838177,6 161.978676,6 C163.119175,6 164.073947,6.33995729 164.844368,7.02239944 C165.613414,7.70357781 166,8.55410293 166,9.57650238 C166,10.597638 165.613414,11.443108 164.844368,12.1103848 L164.844368,12.1103848 Z" id="Fill-11" fill="#FEFEFE" mask="url(#mask-2)"></path>
                <path d="M180.435641,29.1305084 C181.826109,29.1305084 183.102259,28.6387089 184.260361,27.6538259 L185.960237,33.1226872 C184.184563,34.3746571 182.200132,35 180.010672,35 C176.789855,35 174.150574,33.9753108 172.090344,31.9259324 C170.028872,29.876554 169,27.2403549 169,24.0211872 C169,20.8264169 170.042541,18.1902177 172.128865,16.1151579 C174.215189,14.038814 176.829618,13 179.972151,13 C182.238652,13 184.246692,13.6407518 186,14.917119 L184.260361,20.5464892 C183.050069,19.5089593 181.698121,18.9901944 180.203275,18.9901944 C178.735765,18.9901944 177.57642,19.4627327 176.727725,20.4065254 C175.876544,21.3516022 175.451575,22.5432207 175.451575,23.9800969 C175.451575,25.523551 175.907609,26.7691006 176.823405,27.7128932 C177.736715,28.6592541 178.942036,29.1305084 180.435641,29.1305084" id="Fill-13" fill="#FEFEFE" mask="url(#mask-2)"></path>
                <path d="M197.768672,35 C195.999691,35 194.43606,34.6404599 193.076542,33.9213798 C191.717025,33.2035837 190.691511,32.3638009 190,31.4058834 L193.615896,27.7732446 C194.948199,28.9969649 196.435132,29.6094671 198.076697,29.6094671 C199.28282,29.6094671 199.884027,29.2242456 199.884027,28.4512345 C199.884027,28.0788537 199.652698,27.7526995 199.191279,27.4740559 C198.729859,27.1941283 198.159579,26.9540069 197.481676,26.7549758 C196.801299,26.5559447 196.06278,26.276017 195.268594,25.916477 C194.474409,25.5569369 193.73589,25.1370455 193.05675,24.6580867 C192.377609,24.179128 191.80733,23.4947178 191.34591,22.6035721 C190.88449,21.7111422 190.653162,20.6659079 190.653162,19.467869 C190.653162,17.4993871 191.384259,15.9276834 192.846451,14.7566101 C194.307407,13.5855367 196.166692,13 198.423071,13 C201.55157,13 203.961342,14.1980389 205.653626,16.5941166 L201.50085,19.9879181 C200.448121,18.8964571 199.33354,18.3507267 198.154631,18.3507267 C197.178599,18.3507267 196.692439,18.697426 196.692439,19.3882566 C196.692439,19.8684994 197.012834,20.2601412 197.653626,20.5670344 C198.294418,20.8726434 199.070048,21.1654118 199.980516,21.4440553 C200.889748,21.723983 201.801454,22.0783867 202.711922,22.5034145 C203.621154,22.9297263 204.396784,23.6141365 205.038812,24.5592132 C205.679604,25.5030059 206,26.6817837 206,28.0916944 C206,30.1950038 205.216948,31.8720014 203.654554,33.1226872 C202.089686,34.3746571 200.127725,35 197.768672,35" id="Fill-14" fill="#FEFEFE" mask="url(#mask-2)"></path>
                <path d="M30.2996078,22.3900919 L30.2996078,30.7554403 L30.2996078,34.7013594 L26.3536887,34.7013594 L23.5012627,34.7013594 L23.5012627,30.7554403 L26.3536887,30.7554403 L26.3536887,22.3900919 L23.5012627,22.3900919 L23.5012627,18.4441728 L26.3536887,18.4441728 L30.2996078,18.4441728 L30.2996078,22.3900919 Z M23.4987373,16.2445597 L20.6463113,16.2445597 L20.6463113,24.6099081 L23.4987373,24.6099081 L23.4987373,28.5558272 L20.6463113,28.5558272 L16.7003922,28.5558272 L16.7003922,24.6099081 L16.7003922,16.2445597 L16.7003922,12.2986406 L20.6463113,12.2986406 L23.4987373,12.2986406 L23.4987373,16.2445597 Z M23.5,0 C10.5207673,0 0,10.52203 0,23.5 C0,36.47797 10.5207673,47 23.5,47 C36.4792327,47 47,36.47797 47,23.5 C47,10.52203 36.4792327,0 23.5,0 L23.5,0 Z" id="Fill-15" fill="#FEFEFE" mask="url(#mask-2)"></path>
            </g>
        </g>
    </g>
</svg>